<?xml version="1.0" encoding="UTF-8" standalone="no"?>
<!DOCTYPE svg PUBLIC "-//W3C//DTD SVG 1.1//EN"
 "http://www.w3.org/Graphics/SVG/1.1/DTD/svg11.dtd">
<!-- Generated by graphviz version 2.40.1 (20161225.0304)
 -->
<!-- Title: G Pages: 1 -->
<svg width="640pt" height="116pt"
 viewBox="0.00 0.00 639.67 116.00" xmlns="http://www.w3.org/2000/svg" xmlns:xlink="http://www.w3.org/1999/xlink">
<g id="graph0" class="graph" transform="scale(1 1) rotate(0) translate(4 112)">
<title>G</title>
<polygon fill="#ffffff" stroke="transparent" points="-4,4 -4,-112 635.6679,-112 635.6679,4 -4,4"/>
<!-- Ground -->
<g id="node1" class="node">
<title>Ground</title>
<ellipse fill="none" stroke="#000000" cx="226.091" cy="-90" rx="40.5731" ry="18"/>
<text text-anchor="middle" x="226.091" y="-85.8" font-family="Times,serif" font-size="14.00" fill="#000000">Ground</text>
</g>
<!-- Accounting -->
<g id="node2" class="node">
<title>Accounting</title>
<ellipse fill="none" stroke="#000000" cx="56.091" cy="-18" rx="56.1821" ry="18"/>
<text text-anchor="middle" x="56.091" y="-13.8" font-family="Times,serif" font-size="14.00" fill="#000000">Accounting</text>
</g>
<!-- Ground&#45;&gt;Accounting -->
<g id="edge1" class="edge">
<title>Ground&#45;&gt;Accounting</title>
<path fill="none" stroke="#000000" d="M196.4792,-77.4586C169.6974,-66.1157 129.9217,-49.2695 99.5394,-36.4017"/>
<polygon fill="#000000" stroke="#000000" points="100.6067,-33.0528 90.0335,-32.3756 97.8767,-39.4985 100.6067,-33.0528"/>
</g>
<!-- Currency -->
<g id="node3" class="node">
<title>Currency</title>
<ellipse fill="none" stroke="#000000" cx="177.091" cy="-18" rx="46.9304" ry="18"/>
<text text-anchor="middle" x="177.091" y="-13.8" font-family="Times,serif" font-size="14.00" fill="#000000">Currency</text>
</g>
<!-- Ground&#45;&gt;Currency -->
<g id="edge2" class="edge">
<title>Ground&#45;&gt;Currency</title>
<path fill="none" stroke="#000000" d="M214.2294,-72.5708C208.3744,-63.9675 201.1933,-53.4156 194.7113,-43.8911"/>
<polygon fill="#000000" stroke="#000000" points="197.5329,-41.8162 189.0131,-35.5182 191.7459,-45.7546 197.5329,-41.8162"/>
</g>
<!-- Minotaur -->
<g id="node4" class="node">
<title>Minotaur</title>
<ellipse fill="none" stroke="#000000" cx="373.091" cy="-18" rx="46.9497" ry="18"/>
<text text-anchor="middle" x="373.091" y="-13.8" font-family="Times,serif" font-size="14.00" fill="#000000">Minotaur</text>
</g>
<!-- Ground&#45;&gt;Minotaur -->
<g id="edge3" class="edge">
<title>Ground&#45;&gt;Minotaur</title>
<path fill="none" stroke="#000000" d="M253.396,-76.6261C276.3201,-65.398 309.3263,-49.2317 334.8752,-36.7179"/>
<polygon fill="#000000" stroke="#000000" points="336.477,-39.8307 343.9181,-32.2888 333.3979,-33.5443 336.477,-39.8307"/>
</g>
<!-- Users -->
<g id="node5" class="node">
<title>Users</title>
<ellipse fill="none" stroke="#000000" cx="275.091" cy="-18" rx="33.0411" ry="18"/>
<text text-anchor="middle" x="275.091" y="-13.8" font-family="Times,serif" font-size="14.00" fill="#000000">Users</text>
</g>
<!-- Ground&#45;&gt;Users -->
<g id="edge4" class="edge">
<title>Ground&#45;&gt;Users</title>
<path fill="none" stroke="#000000" d="M237.9525,-72.5708C243.8509,-63.9038 251.0951,-53.2592 257.6146,-43.6796"/>
<polygon fill="#000000" stroke="#000000" points="260.6059,-45.505 263.3387,-35.2687 254.8189,-41.5666 260.6059,-45.505"/>
</g>
<!-- Blockchain -->
<g id="node6" class="node">
<title>Blockchain</title>
<ellipse fill="none" stroke="#000000" cx="477.091" cy="-90" rx="55.0362" ry="18"/>
<text text-anchor="middle" x="477.091" y="-85.8" font-family="Times,serif" font-size="14.00" fill="#000000">Blockchain</text>
</g>
<!-- Blockchain&#45;&gt;Minotaur -->
<g id="edge5" class="edge">
<title>Blockchain&#45;&gt;Minotaur</title>
<path fill="none" stroke="#000000" d="M453.4918,-73.6621C438.9287,-63.5799 420.0786,-50.5299 404.2911,-39.6001"/>
<polygon fill="#000000" stroke="#000000" points="406.0963,-36.5929 395.8821,-33.7784 402.1118,-42.3483 406.0963,-36.5929"/>
</g>
<!-- Bitcoin -->
<g id="node7" class="node">
<title>Bitcoin</title>
<ellipse fill="none" stroke="#000000" cx="477.091" cy="-18" rx="39.4428" ry="18"/>
<text text-anchor="middle" x="477.091" y="-13.8" font-family="Times,serif" font-size="14.00" fill="#000000">Bitcoin</text>
</g>
<!-- Blockchain&#45;&gt;Bitcoin -->
<g id="edge6" class="edge">
<title>Blockchain&#45;&gt;Bitcoin</title>
<path fill="none" stroke="#000000" d="M477.091,-71.8314C477.091,-64.131 477.091,-54.9743 477.091,-46.4166"/>
<polygon fill="#000000" stroke="#000000" points="480.5911,-46.4132 477.091,-36.4133 473.5911,-46.4133 480.5911,-46.4132"/>
</g>
<!-- Ethereum -->
<g id="node8" class="node">
<title>Ethereum</title>
<ellipse fill="none" stroke="#000000" cx="583.091" cy="-18" rx="48.654" ry="18"/>
<text text-anchor="middle" x="583.091" y="-13.8" font-family="Times,serif" font-size="14.00" fill="#000000">Ethereum</text>
</g>
<!-- Blockchain&#45;&gt;Ethereum -->
<g id="edge7" class="edge">
<title>Blockchain&#45;&gt;Ethereum</title>
<path fill="none" stroke="#000000" d="M501.144,-73.6621C515.8841,-63.65 534.9332,-50.711 550.9552,-39.8281"/>
<polygon fill="#000000" stroke="#000000" points="553.1927,-42.5394 559.4983,-34.0252 549.2595,-36.7488 553.1927,-42.5394"/>
</g>
</g>
</svg>
