<?xml version="1.0" encoding="UTF-8" standalone="no"?>
<!DOCTYPE svg PUBLIC "-//W3C//DTD SVG 1.1//EN"
 "http://www.w3.org/Graphics/SVG/1.1/DTD/svg11.dtd">
<!-- Generated by graphviz version 2.40.1 (20161225.0304)
 -->
<!-- Title: G Pages: 1 -->
<svg width="640pt" height="116pt"
 viewBox="0.00 0.00 640.00 116.00" xmlns="http://www.w3.org/2000/svg" xmlns:xlink="http://www.w3.org/1999/xlink">
<g id="graph0" class="graph" transform="scale(1 1) rotate(0) translate(4 112)">
<title>G</title>
<polygon fill="#ffffff" stroke="transparent" points="-4,4 -4,-112 635.9954,-112 635.9954,4 -4,4"/>
<!-- Data -->
<g id="node1" class="node">
<title>Data</title>
<ellipse fill="none" stroke="#000000" cx="46.9748" cy="-90" rx="29.0318" ry="18"/>
<text text-anchor="middle" x="46.9748" y="-85.8" font-family="Times,serif" font-size="14.00" fill="#000000">Data</text>
</g>
<!-- Minotaur -->
<g id="node2" class="node">
<title>Minotaur</title>
<ellipse fill="none" stroke="#000000" cx="46.9748" cy="-18" rx="46.9497" ry="18"/>
<text text-anchor="middle" x="46.9748" y="-13.8" font-family="Times,serif" font-size="14.00" fill="#000000">Minotaur</text>
</g>
<!-- Data&#45;&gt;Minotaur -->
<g id="edge1" class="edge">
<title>Data&#45;&gt;Minotaur</title>
<path fill="none" stroke="#000000" d="M46.9748,-71.8314C46.9748,-64.131 46.9748,-54.9743 46.9748,-46.4166"/>
<polygon fill="#000000" stroke="#000000" points="50.4749,-46.4132 46.9748,-36.4133 43.4749,-46.4133 50.4749,-46.4132"/>
</g>
<!-- Ground -->
<g id="node3" class="node">
<title>Ground</title>
<ellipse fill="none" stroke="#000000" cx="500.9748" cy="-90" rx="40.5731" ry="18"/>
<text text-anchor="middle" x="500.9748" y="-85.8" font-family="Times,serif" font-size="14.00" fill="#000000">Ground</text>
</g>
<!-- Accounting -->
<g id="node4" class="node">
<title>Accounting</title>
<ellipse fill="none" stroke="#000000" cx="379.9748" cy="-18" rx="56.1821" ry="18"/>
<text text-anchor="middle" x="379.9748" y="-13.8" font-family="Times,serif" font-size="14.00" fill="#000000">Accounting</text>
</g>
<!-- Ground&#45;&gt;Accounting -->
<g id="edge2" class="edge">
<title>Ground&#45;&gt;Accounting</title>
<path fill="none" stroke="#000000" d="M476.4887,-75.4297C459.0025,-65.0247 435.2054,-50.8645 415.617,-39.2085"/>
<polygon fill="#000000" stroke="#000000" points="417.3342,-36.1577 406.9508,-34.0518 413.7547,-42.1732 417.3342,-36.1577"/>
</g>
<!-- Currency -->
<g id="node5" class="node">
<title>Currency</title>
<ellipse fill="none" stroke="#000000" cx="500.9748" cy="-18" rx="46.9304" ry="18"/>
<text text-anchor="middle" x="500.9748" y="-13.8" font-family="Times,serif" font-size="14.00" fill="#000000">Currency</text>
</g>
<!-- Ground&#45;&gt;Currency -->
<g id="edge3" class="edge">
<title>Ground&#45;&gt;Currency</title>
<path fill="none" stroke="#000000" d="M500.9748,-71.8314C500.9748,-64.131 500.9748,-54.9743 500.9748,-46.4166"/>
<polygon fill="#000000" stroke="#000000" points="504.4749,-46.4132 500.9748,-36.4133 497.4749,-46.4133 504.4749,-46.4132"/>
</g>
<!-- Users -->
<g id="node6" class="node">
<title>Users</title>
<ellipse fill="none" stroke="#000000" cx="598.9748" cy="-18" rx="33.0411" ry="18"/>
<text text-anchor="middle" x="598.9748" y="-13.8" font-family="Times,serif" font-size="14.00" fill="#000000">Users</text>
</g>
<!-- Ground&#45;&gt;Users -->
<g id="edge4" class="edge">
<title>Ground&#45;&gt;Users</title>
<path fill="none" stroke="#000000" d="M522.2394,-74.3771C536.4888,-63.9081 555.4042,-50.011 570.8893,-38.6343"/>
<polygon fill="#000000" stroke="#000000" points="573.1012,-41.3523 579.0877,-32.6109 568.9566,-35.7111 573.1012,-41.3523"/>
</g>
<!-- Blockchain -->
<g id="node7" class="node">
<title>Blockchain</title>
<ellipse fill="none" stroke="#000000" cx="150.9748" cy="-90" rx="55.0362" ry="18"/>
<text text-anchor="middle" x="150.9748" y="-85.8" font-family="Times,serif" font-size="14.00" fill="#000000">Blockchain</text>
</g>
<!-- Blockchain&#45;&gt;Minotaur -->
<g id="edge5" class="edge">
<title>Blockchain&#45;&gt;Minotaur</title>
<path fill="none" stroke="#000000" d="M127.3756,-73.6621C112.8125,-63.5799 93.9624,-50.5299 78.175,-39.6001"/>
<polygon fill="#000000" stroke="#000000" points="79.9801,-36.5929 69.7659,-33.7784 75.9956,-42.3483 79.9801,-36.5929"/>
</g>
<!-- Bitcoin -->
<g id="node8" class="node">
<title>Bitcoin</title>
<ellipse fill="none" stroke="#000000" cx="150.9748" cy="-18" rx="39.4428" ry="18"/>
<text text-anchor="middle" x="150.9748" y="-13.8" font-family="Times,serif" font-size="14.00" fill="#000000">Bitcoin</text>
</g>
<!-- Blockchain&#45;&gt;Bitcoin -->
<g id="edge6" class="edge">
<title>Blockchain&#45;&gt;Bitcoin</title>
<path fill="none" stroke="#000000" d="M150.9748,-71.8314C150.9748,-64.131 150.9748,-54.9743 150.9748,-46.4166"/>
<polygon fill="#000000" stroke="#000000" points="154.4749,-46.4132 150.9748,-36.4133 147.4749,-46.4133 154.4749,-46.4132"/>
</g>
<!-- Ethereum -->
<g id="node9" class="node">
<title>Ethereum</title>
<ellipse fill="none" stroke="#000000" cx="256.9748" cy="-18" rx="48.654" ry="18"/>
<text text-anchor="middle" x="256.9748" y="-13.8" font-family="Times,serif" font-size="14.00" fill="#000000">Ethereum</text>
</g>
<!-- Blockchain&#45;&gt;Ethereum -->
<g id="edge7" class="edge">
<title>Blockchain&#45;&gt;Ethereum</title>
<path fill="none" stroke="#000000" d="M175.0279,-73.6621C189.7679,-63.65 208.817,-50.711 224.839,-39.8281"/>
<polygon fill="#000000" stroke="#000000" points="227.0765,-42.5394 233.3821,-34.0252 223.1433,-36.7488 227.0765,-42.5394"/>
</g>
</g>
</svg>
