<?xml version="1.0" encoding="UTF-8" standalone="no"?>
<!DOCTYPE svg PUBLIC "-//W3C//DTD SVG 1.1//EN"
 "http://www.w3.org/Graphics/SVG/1.1/DTD/svg11.dtd">
<!-- Generated by graphviz version 2.40.1 (20161225.0304)
 -->
<!-- Title: G Pages: 1 -->
<svg width="498pt" height="116pt"
 viewBox="0.00 0.00 497.60 116.00" xmlns="http://www.w3.org/2000/svg" xmlns:xlink="http://www.w3.org/1999/xlink">
<g id="graph0" class="graph" transform="scale(1 1) rotate(0) translate(4 112)">
<title>G</title>
<polygon fill="#ffffff" stroke="transparent" points="-4,4 -4,-112 493.5975,-112 493.5975,4 -4,4"/>
<!-- Data -->
<g id="node1" class="node">
<title>Data</title>
<ellipse fill="none" stroke="#000000" cx="125.0205" cy="-90" rx="29.0318" ry="18"/>
<text text-anchor="middle" x="125.0205" y="-85.8" font-family="Times,serif" font-size="14.00" fill="#000000">Data</text>
</g>
<!-- Minotaur -->
<g id="node2" class="node">
<title>Minotaur</title>
<ellipse fill="none" stroke="#000000" cx="231.0205" cy="-18" rx="46.9497" ry="18"/>
<text text-anchor="middle" x="231.0205" y="-13.8" font-family="Times,serif" font-size="14.00" fill="#000000">Minotaur</text>
</g>
<!-- Data&#45;&gt;Minotaur -->
<g id="edge1" class="edge">
<title>Data&#45;&gt;Minotaur</title>
<path fill="none" stroke="#000000" d="M144.9583,-76.4574C160.3168,-66.0252 181.8425,-51.404 199.5235,-39.3942"/>
<polygon fill="#000000" stroke="#000000" points="201.5449,-42.2523 207.8505,-33.7381 197.6117,-36.4617 201.5449,-42.2523"/>
</g>
<!-- Users -->
<g id="node3" class="node">
<title>Users</title>
<ellipse fill="none" stroke="#000000" cx="33.0205" cy="-18" rx="33.0411" ry="18"/>
<text text-anchor="middle" x="33.0205" y="-13.8" font-family="Times,serif" font-size="14.00" fill="#000000">Users</text>
</g>
<!-- Data&#45;&gt;Users -->
<g id="edge2" class="edge">
<title>Data&#45;&gt;Users</title>
<path fill="none" stroke="#000000" d="M106.8443,-75.7751C93.5007,-65.3323 75.1537,-50.9738 60.0885,-39.1836"/>
<polygon fill="#000000" stroke="#000000" points="62.1413,-36.3458 52.1092,-32.9389 57.8272,-41.8583 62.1413,-36.3458"/>
</g>
<!-- Ground -->
<g id="node4" class="node">
<title>Ground</title>
<ellipse fill="none" stroke="#000000" cx="125.0205" cy="-18" rx="40.5731" ry="18"/>
<text text-anchor="middle" x="125.0205" y="-13.8" font-family="Times,serif" font-size="14.00" fill="#000000">Ground</text>
</g>
<!-- Data&#45;&gt;Ground -->
<g id="edge3" class="edge">
<title>Data&#45;&gt;Ground</title>
<path fill="none" stroke="#000000" d="M125.0205,-71.8314C125.0205,-64.131 125.0205,-54.9743 125.0205,-46.4166"/>
<polygon fill="#000000" stroke="#000000" points="128.5206,-46.4132 125.0205,-36.4133 121.5206,-46.4133 128.5206,-46.4132"/>
</g>
<!-- Blockchain -->
<g id="node5" class="node">
<title>Blockchain</title>
<ellipse fill="none" stroke="#000000" cx="335.0205" cy="-90" rx="55.0362" ry="18"/>
<text text-anchor="middle" x="335.0205" y="-85.8" font-family="Times,serif" font-size="14.00" fill="#000000">Blockchain</text>
</g>
<!-- Blockchain&#45;&gt;Minotaur -->
<g id="edge4" class="edge">
<title>Blockchain&#45;&gt;Minotaur</title>
<path fill="none" stroke="#000000" d="M311.4213,-73.6621C296.8582,-63.5799 278.0081,-50.5299 262.2207,-39.6001"/>
<polygon fill="#000000" stroke="#000000" points="264.0258,-36.5929 253.8116,-33.7784 260.0413,-42.3483 264.0258,-36.5929"/>
</g>
<!-- Bitcoin -->
<g id="node6" class="node">
<title>Bitcoin</title>
<ellipse fill="none" stroke="#000000" cx="335.0205" cy="-18" rx="39.4428" ry="18"/>
<text text-anchor="middle" x="335.0205" y="-13.8" font-family="Times,serif" font-size="14.00" fill="#000000">Bitcoin</text>
</g>
<!-- Blockchain&#45;&gt;Bitcoin -->
<g id="edge5" class="edge">
<title>Blockchain&#45;&gt;Bitcoin</title>
<path fill="none" stroke="#000000" d="M335.0205,-71.8314C335.0205,-64.131 335.0205,-54.9743 335.0205,-46.4166"/>
<polygon fill="#000000" stroke="#000000" points="338.5206,-46.4132 335.0205,-36.4133 331.5206,-46.4133 338.5206,-46.4132"/>
</g>
<!-- Ethereum -->
<g id="node7" class="node">
<title>Ethereum</title>
<ellipse fill="none" stroke="#000000" cx="441.0205" cy="-18" rx="48.654" ry="18"/>
<text text-anchor="middle" x="441.0205" y="-13.8" font-family="Times,serif" font-size="14.00" fill="#000000">Ethereum</text>
</g>
<!-- Blockchain&#45;&gt;Ethereum -->
<g id="edge6" class="edge">
<title>Blockchain&#45;&gt;Ethereum</title>
<path fill="none" stroke="#000000" d="M359.0736,-73.6621C373.8136,-63.65 392.8627,-50.711 408.8847,-39.8281"/>
<polygon fill="#000000" stroke="#000000" points="411.1223,-42.5394 417.4278,-34.0252 407.189,-36.7488 411.1223,-42.5394"/>
</g>
</g>
</svg>
